<svg xmlns="http://www.w3.org/2000/svg" viewBox="0 0 32 32" class="search-toggle__icon" data-test-id="masthead-search-toggle-button-icon" aria-hidden="true"><g><path d="M21.146 19.994l9.933 9.934c-1.781.689-4.134.109-5.862-1.62l-6.188-6.188a11.157 11.157 0 01-6.81 2.318C6.023 24.438 1 19.415 1 13.219S6.023 2 12.219 2s11.218 5.023 11.218 11.219c0 2.549-.859 4.892-2.291 6.775zM3 13.219c0 5.083 4.135 9.219 9.219 9.219 5.083 0 9.218-4.136 9.218-9.219C21.437 8.136 17.302 4 12.219 4 7.135 4 3 8.136 3 13.219z"></path></g></svg>