<svg xmlns="http://www.w3.org/2000/svg" viewBox="0 0 32 32" class="arrow" data-test-id="up-down-arrow" aria-hidden="true"><g class="linear-arrow-up"><path d="M15.513 10.274L5.249 20.54c-.162.165-.241.332-.249.53 0 .453.785 1.058 1.033 1.262l.137.112 10.003-10.003 10.003 10.003.137-.112c.248-.204 1.033-.809 1.033-1.262-.008-.198-.087-.365-.248-.53L16.834 10.274a.931.931 0 00-1.321 0z"></path></g><g class="linear-arrow-down"><path d="M16.174 20.002L6.171 10a6.52 6.52 0 00-.138.11C5.786 10.316 5 10.92 5 11.372a.777.777 0 00.249.53L15.513 22.17a.934.934 0 001.321 0l10.264-10.268a.763.763 0 00.248-.53c0-.452-.784-1.056-1.033-1.262a4.806 4.806 0 00-.136-.11L16.174 20.002z"></path></g></svg>