<svg xmlns="http://www.w3.org/2000/svg" viewBox="0 0 34 34" class="search-tray__close-button-icon" data-test-id="search-magnifing-glass" aria-hidden="true"><path d="M17.134 15.721l7.306-7.306c-.182-.43-.843-1.159-1.31-1.175a.762.762 0 00-.582.239l-6.828 6.828L8.414 7c-.43.183-1.159.843-1.175 1.312a.76.76 0 00.239.581l6.828 6.828L7 23.028c.182.429.842 1.158 1.31 1.174a.763.763 0 00.582-.239l6.828-6.828 7.306 7.307c.43-.183 1.159-.843 1.175-1.312a.757.757 0 00-.239-.581l-6.828-6.828z" fill-rule="evenodd"></path></svg>