<svg version="1" xmlns="http://www.w3.org/2000/svg" width="413.333" height="413.333" viewBox="0 0 310 310"><path d="M128.3 84.9c-8.2 3.8-7.8.7-8.1 61.2l-.3 53.7 2.6.6c3.4.9 12.2-.3 16.2-2.1 1.7-.8 3.6-2.6 4.2-4.1.8-1.9 1-19 .9-56.7l-.3-54-5.5-.3c-3.7-.1-6.8.4-9.7 1.7zM186.4 113.8c-2.8 1-6.4 2.8-8 4.1-3.7 2.9-33.4 35.3-33.4 36.5 0 .8 11 18.4 21.6 34.6 4.9 7.5 9.7 10.8 17.2 11.7 5.2.6 16.2-1.3 16.2-2.8 0-.5-5.8-9.6-12.8-20.2-7.1-10.5-13.2-19.7-13.6-20.4-.4-.8 2.9-5 8.8-11.2l9.5-9.9 15.6 24.3C216 173.9 223 185.4 223 186c0 .6-4.3 10.1-9.5 21.2-5.2 11-9.5 20.1-9.5 20.3 0 .1 2 .8 4.4 1.4 9.3 2.3 16.2.8 20.7-4.6 1.8-2.2 45.3-96.7 49.4-107.4 1.3-3.5-11.4-5.3-17.8-2.5-1.8.7-4.5 2.7-6 4.3-2.6 2.8-9.6 17.4-16.3 34-1.6 4-3.2 7.3-3.5 7.3-.3 0-6.5-9.8-13.9-21.8-7.3-11.9-14-22.5-14.9-23.4-2.5-2.7-13.4-3.3-19.7-1zM60 114.6c-12.3 3.3-19.7 11.6-20.7 23.4-.4 4.4-.1 6.7 1.6 10.4 1.1 2.6 2.5 4.5 3.1 4.1.5-.3.7 0 .4.8-.7 1.8 4.4 5.8 10.7 8.6 2.4 1.1 9.4 2.9 15.4 4 6.1 1.2 12.5 2.6 14.3 3.2 6.2 2 6.1 7-.3 8.8-1.9.5-10.5.7-19.2.4-15.4-.5-15.9-.5-18.7 1.7-1.6 1.3-3.5 3.8-4.2 5.6-1.5 3.6-1.8 10.2-.6 12.1 1.1 1.8 29.5 3.3 41 2.2C103 198 113.2 189 113.3 173c0-7.5-2.2-12.6-7.5-17.7-4.8-4.6-10.6-6.8-25.5-9.7-15.2-2.9-17.6-3.8-17.1-6.9.5-3.8 5.6-4.8 21.4-4.1 11.9.5 14.6.4 17.2-1 4.5-2.3 6.4-6.5 6-13.4l-.3-5.7-5-.7c-9.7-1.2-36.7-.8-42.5.8z"/></svg>